<svg width="1628" height="340" viewBox="0 0 1628 340" fill="none" xmlns="http://www.w3.org/2000/svg">
<path fill-rule="evenodd" clip-rule="evenodd" d="M243.697 243.134C221.985 253.841 196.791 260 169.703 260C142.614 260 117.42 253.841 95.7087 243.134C83.6032 221.498 76.7028 196.555 76.7028 170C76.7028 160.437 77.5976 151.084 79.3081 142.018C88.4343 148.267 98.2057 153.568 108.473 157.821C127.886 165.861 148.691 170 169.703 170C190.714 170 211.52 165.861 230.932 157.821C241.2 153.568 250.971 148.267 260.097 142.018C261.808 151.084 262.703 160.437 262.703 170C262.703 196.555 255.802 221.498 243.697 243.134ZM234.025 258.227C214.341 265.798 192.583 270 169.703 270C146.823 270 125.064 265.798 105.38 258.227C121.618 280.517 143.848 298.161 169.703 308.791C195.558 298.161 217.788 280.517 234.025 258.227ZM80.151 234.308C71.503 214.628 66.7028 192.874 66.7028 170C66.7028 158.149 67.9911 146.6 70.4355 135.483C65.5868 131.647 60.9549 127.526 56.5657 123.137C49.3563 115.928 42.8702 108.063 37.1842 99.6595C29.2275 114.618 23.7296 131.084 21.2295 148.518C26.9956 183.239 48.7273 213.956 80.151 234.308ZM20 179.52C32.9567 209.493 57.3333 234.557 88.4846 250.648C104.311 277.713 127.86 299.713 156.108 313.624C151.239 315.093 146.266 316.322 141.203 317.296C75.0174 304.566 24.3099 248.334 20 179.52ZM250.921 250.648C282.072 234.557 306.449 209.493 319.406 179.52C315.096 248.334 264.388 304.566 198.203 317.296C193.139 316.322 188.166 315.093 183.297 313.624C211.546 299.713 235.095 277.713 250.921 250.648ZM318.176 148.518C312.41 183.239 290.678 213.956 259.255 234.308C267.903 214.628 272.703 192.875 272.703 170C272.703 158.149 271.414 146.6 268.97 135.483C273.819 131.647 278.451 127.526 282.84 123.137C290.049 115.928 296.535 108.063 302.221 99.6596C310.178 114.618 315.676 131.084 318.176 148.518ZM198.203 22.7041C239.56 30.6589 274.874 55.5995 296.6 89.9818C290.662 99.4023 283.68 108.155 275.769 116.066C272.712 119.122 269.53 122.04 266.233 124.813C253.532 81.5892 223.074 45.964 183.297 26.376C188.166 24.9066 193.139 23.678 198.203 22.7041ZM156.108 26.376C116.332 45.964 85.8739 81.5892 73.1727 124.813C69.8752 122.04 66.6932 119.122 63.6367 116.066C55.7254 108.155 48.7431 99.4023 42.8055 89.9818C64.5316 55.5995 99.8454 30.6589 141.203 22.7041C146.266 23.678 151.239 24.9066 156.108 26.376ZM169.703 31.2094C126.729 48.8772 93.7682 85.9232 81.6974 131.47C91.1724 138.335 101.44 144.084 112.3 148.582C130.499 156.12 150.004 160 169.703 160C189.401 160 208.906 156.12 227.105 148.582C237.965 144.084 248.233 138.335 257.708 131.47C245.637 85.9233 212.677 48.8772 169.703 31.2094ZM169.703 20.4512C170.097 20.3008 170.492 20.152 170.888 20.0046C170.493 20.0015 170.098 20 169.703 20C169.307 20 168.912 20.0015 168.517 20.0046C168.913 20.152 169.308 20.3008 169.703 20.4512ZM169.703 319.549C169.882 319.617 170.062 319.685 170.242 319.753C170.457 319.834 170.672 319.915 170.888 319.995C170.493 319.998 170.098 320 169.703 320C169.307 320 168.912 319.998 168.517 319.995C168.913 319.848 169.308 319.699 169.703 319.549Z" fill="#31304D"/>
<path d="M353.333 85.5225H376.551L418.152 127.271L459.754 85.5225H482.972V200H459.754V117.676L418.152 157.739L376.551 117.676V200H353.333V85.5225ZM508.753 172.754C508.753 168.604 509.656 164.819 511.463 161.401C513.27 157.983 515.979 155.054 519.593 152.612C523.206 150.122 527.698 148.218 533.069 146.899C538.489 145.532 544.788 144.849 551.966 144.849C557.288 144.849 562.879 145.239 568.738 146.021C574.646 146.802 580.726 147.998 586.976 149.609C586.731 146.875 585.901 144.36 584.485 142.065C583.069 139.722 581.092 137.72 578.553 136.06C576.062 134.351 573.035 133.032 569.471 132.104C565.955 131.177 561.951 130.713 557.459 130.713C555.018 130.713 552.332 130.859 549.402 131.152C546.473 131.445 543.445 131.885 540.32 132.471C537.195 133.057 534.095 133.789 531.019 134.668C527.991 135.547 525.159 136.597 522.522 137.817L515.931 120.02C519.202 118.848 522.693 117.773 526.404 116.797C530.164 115.82 533.997 114.99 537.903 114.307C541.81 113.574 545.716 113.013 549.622 112.622C553.528 112.231 557.312 112.036 560.975 112.036C577.137 112.036 589.148 116.162 597.01 124.414C604.871 132.666 608.802 145.312 608.802 162.354V200H587.122V191.87C584.876 193.188 582.41 194.434 579.725 195.605C577.088 196.777 574.207 197.803 571.082 198.682C567.957 199.561 564.588 200.244 560.975 200.732C557.41 201.27 553.626 201.538 549.622 201.538C542.884 201.538 536.951 200.806 531.824 199.341C526.746 197.876 522.498 195.85 519.08 193.262C515.662 190.674 513.074 187.646 511.316 184.18C509.607 180.664 508.753 176.855 508.753 172.754ZM531.604 172.021C531.604 173.438 531.971 174.805 532.703 176.123C533.436 177.393 534.607 178.54 536.219 179.565C537.83 180.542 539.881 181.348 542.371 181.982C544.91 182.568 547.962 182.861 551.526 182.861C555.335 182.861 559.021 182.52 562.586 181.836C566.15 181.152 569.471 180.249 572.547 179.126C575.623 178.003 578.406 176.709 580.896 175.244C583.387 173.779 585.462 172.266 587.122 170.703V166.895C583.802 165.967 580.506 165.186 577.234 164.551C574.012 163.916 570.911 163.428 567.933 163.086C565.003 162.695 562.22 162.427 559.583 162.28C556.995 162.134 554.725 162.061 552.771 162.061C548.719 162.061 545.35 162.329 542.664 162.866C539.979 163.403 537.806 164.136 536.146 165.063C534.485 165.942 533.313 166.992 532.63 168.213C531.946 169.434 531.604 170.703 531.604 172.021ZM625.574 113.501H650.696L673.182 165.503L679.041 180.078L684.9 165.503L707.386 113.501H732.508L691.565 200H666.517L625.574 113.501ZM750.379 85.5225H773.597V179.639H840.174V200H750.379V85.5225ZM854.822 156.787C854.822 150.586 856.067 144.775 858.558 139.355C861.097 133.936 864.686 129.199 869.324 125.146C874.012 121.094 879.651 117.896 886.243 115.552C892.884 113.208 900.33 112.036 908.582 112.036C916.834 112.036 924.256 113.208 930.848 115.552C937.488 117.896 943.128 121.094 947.767 125.146C952.454 129.199 956.043 133.936 958.533 139.355C961.072 144.775 962.342 150.586 962.342 156.787C962.342 162.988 961.072 168.799 958.533 174.219C956.043 179.639 952.454 184.375 947.767 188.428C943.128 192.48 937.488 195.679 930.848 198.022C924.256 200.366 916.834 201.538 908.582 201.538C900.33 201.538 892.884 200.366 886.243 198.022C879.651 195.679 874.012 192.48 869.324 188.428C864.686 184.375 861.097 179.639 858.558 174.219C856.067 168.799 854.822 162.988 854.822 156.787ZM877.601 156.787C877.601 160.254 878.284 163.55 879.651 166.675C881.067 169.751 883.094 172.485 885.73 174.878C888.416 177.222 891.663 179.102 895.472 180.518C899.329 181.885 903.699 182.568 908.582 182.568C913.465 182.568 917.811 181.885 921.619 180.518C925.477 179.102 928.724 177.222 931.36 174.878C934.046 172.485 936.072 169.751 937.439 166.675C938.855 163.55 939.563 160.254 939.563 156.787C939.563 153.32 938.855 150.024 937.439 146.899C936.072 143.774 934.046 141.04 931.36 138.696C928.724 136.304 925.477 134.424 921.619 133.057C917.811 131.641 913.465 130.933 908.582 130.933C903.699 130.933 899.329 131.641 895.472 133.057C891.663 134.424 888.416 136.304 885.73 138.696C883.094 141.04 881.067 143.774 879.651 146.899C878.284 150.024 877.601 153.32 877.601 156.787ZM997.791 214.648C1000.53 215.625 1003.31 216.431 1006.14 217.065C1008.97 217.749 1011.71 218.286 1014.34 218.677C1017.03 219.116 1019.59 219.409 1022.03 219.556C1024.48 219.751 1026.65 219.849 1028.55 219.849C1034.31 219.849 1039.32 219.141 1043.57 217.725C1047.86 216.357 1051.43 214.502 1054.26 212.158C1057.14 209.814 1059.29 207.08 1060.71 203.955C1062.12 200.879 1062.83 197.607 1062.83 194.141V190.405C1060.97 191.675 1058.8 192.896 1056.31 194.067C1053.82 195.239 1051.09 196.265 1048.11 197.144C1045.13 198.022 1041.96 198.73 1038.59 199.268C1035.27 199.805 1031.82 200.073 1028.26 200.073C1021.18 200.073 1014.64 199.023 1008.63 196.924C1002.62 194.775 997.425 191.797 993.03 187.988C988.636 184.131 985.193 179.517 982.703 174.146C980.262 168.774 979.041 162.817 979.041 156.274C979.041 149.585 980.335 143.53 982.923 138.11C985.511 132.642 989.075 127.979 993.616 124.121C998.206 120.264 1003.63 117.285 1009.88 115.186C1016.13 113.086 1022.91 112.036 1030.24 112.036C1033.36 112.036 1036.46 112.231 1039.54 112.622C1042.62 113.013 1045.54 113.55 1048.33 114.233C1051.16 114.917 1053.8 115.747 1056.24 116.724C1058.73 117.651 1060.93 118.677 1062.83 119.8V113.574H1084.51V190.112C1084.51 197.974 1083.31 204.932 1080.92 210.986C1078.53 217.041 1075.01 222.119 1070.37 226.221C1065.78 230.371 1060.07 233.496 1053.24 235.596C1046.4 237.744 1038.56 238.818 1029.72 238.818C1026.55 238.818 1023.25 238.672 1019.84 238.379C1016.42 238.135 1012.98 237.744 1009.51 237.207C1006.09 236.719 1002.7 236.108 999.329 235.376C996.009 234.692 992.811 233.887 989.734 232.959L997.791 214.648ZM1001.82 156.055C1001.82 159.521 1002.5 162.793 1003.87 165.869C1005.29 168.896 1007.29 171.558 1009.88 173.853C1012.46 176.099 1015.59 177.881 1019.25 179.199C1022.91 180.469 1027.04 181.104 1031.63 181.104C1034.61 181.104 1037.56 180.835 1040.49 180.298C1043.47 179.712 1046.3 178.906 1048.99 177.881C1051.72 176.855 1054.26 175.61 1056.6 174.146C1059 172.681 1061.07 171.045 1062.83 169.238V140.747C1060.63 138.989 1058.31 137.5 1055.87 136.279C1053.43 135.059 1050.94 134.058 1048.4 133.276C1045.86 132.495 1043.3 131.934 1040.71 131.592C1038.12 131.201 1035.61 131.006 1033.17 131.006C1028.19 131.006 1023.74 131.665 1019.84 132.983C1015.98 134.302 1012.71 136.108 1010.02 138.403C1007.39 140.649 1005.36 143.286 1003.94 146.313C1002.53 149.341 1001.82 152.588 1001.82 156.055ZM1120.62 101.782C1118.47 101.782 1116.52 101.489 1114.76 100.903C1113.05 100.269 1111.58 99.4385 1110.36 98.4131C1109.14 97.3389 1108.19 96.1182 1107.51 94.751C1106.87 93.335 1106.56 91.8457 1106.56 90.2832C1106.56 88.6719 1106.87 87.1826 1107.51 85.8154C1108.19 84.3994 1109.14 83.1787 1110.36 82.1533C1111.58 81.1279 1113.05 80.3223 1114.76 79.7363C1116.52 79.1016 1118.47 78.7842 1120.62 78.7842C1122.82 78.7842 1124.77 79.1016 1126.48 79.7363C1128.24 80.3223 1129.72 81.1279 1130.95 82.1533C1132.17 83.1787 1133.09 84.3994 1133.73 85.8154C1134.41 87.1826 1134.75 88.6719 1134.75 90.2832C1134.75 91.8457 1134.41 93.335 1133.73 94.751C1133.09 96.1182 1132.17 97.3389 1130.95 98.4131C1129.72 99.4385 1128.24 100.269 1126.48 100.903C1124.77 101.489 1122.82 101.782 1120.62 101.782ZM1109.78 113.574H1131.46V200H1109.78V113.574ZM1162.73 173.486C1168.59 177.002 1175.04 179.59 1182.07 181.25C1189.1 182.91 1196.3 183.74 1203.67 183.74C1208.66 183.74 1212.81 183.398 1216.13 182.715C1219.45 182.031 1222.11 181.152 1224.11 180.078C1226.11 179.004 1227.53 177.783 1228.36 176.416C1229.19 175.049 1229.6 173.657 1229.6 172.241C1229.6 170.19 1228.7 168.433 1226.89 166.968C1225.13 165.503 1222.21 164.771 1218.1 164.771C1216.2 164.771 1214.15 164.893 1211.95 165.137C1209.75 165.381 1207.43 165.649 1204.99 165.942C1202.6 166.187 1200.09 166.431 1197.45 166.675C1194.86 166.919 1192.22 167.041 1189.54 167.041C1183.68 167.041 1178.67 166.406 1174.52 165.137C1170.42 163.867 1167.08 162.134 1164.49 159.937C1161.9 157.739 1160.02 155.151 1158.85 152.173C1157.68 149.146 1157.09 145.898 1157.09 142.432C1157.09 138.037 1158.12 133.984 1160.17 130.273C1162.22 126.562 1165.15 123.364 1168.96 120.679C1172.77 117.944 1177.36 115.82 1182.73 114.307C1188.15 112.793 1194.18 112.036 1200.82 112.036C1204.29 112.036 1207.9 112.256 1211.66 112.695C1215.47 113.086 1219.2 113.623 1222.86 114.307C1226.53 114.99 1230.04 115.796 1233.41 116.724C1236.78 117.603 1239.76 118.555 1242.35 119.58L1235.54 136.426C1230.02 134.375 1224.5 132.764 1218.98 131.592C1213.51 130.371 1207.87 129.761 1202.06 129.761C1198.01 129.761 1194.57 130.078 1191.74 130.713C1188.95 131.299 1186.68 132.104 1184.92 133.13C1183.17 134.106 1181.87 135.254 1181.04 136.572C1180.26 137.842 1179.87 139.185 1179.87 140.601C1179.87 141.626 1180.07 142.554 1180.46 143.384C1180.9 144.214 1181.58 144.946 1182.51 145.581C1183.48 146.167 1184.73 146.631 1186.24 146.973C1187.81 147.266 1189.71 147.412 1191.96 147.412C1194.01 147.412 1196.18 147.29 1198.47 147.046C1200.77 146.802 1203.16 146.558 1205.65 146.313C1208.14 146.021 1210.71 145.752 1213.34 145.508C1216.03 145.264 1218.76 145.142 1221.55 145.142C1226.72 145.142 1231.24 145.752 1235.1 146.973C1239 148.193 1242.22 149.902 1244.76 152.1C1247.3 154.297 1249.21 156.885 1250.48 159.863C1251.75 162.842 1252.38 166.089 1252.38 169.604C1252.38 174.146 1251.33 178.369 1249.23 182.275C1247.13 186.182 1244.01 189.575 1239.86 192.456C1235.71 195.288 1230.53 197.51 1224.33 199.121C1218.18 200.732 1211.05 201.538 1202.94 201.538C1197.96 201.538 1193.15 201.221 1188.51 200.586C1183.88 200 1179.46 199.194 1175.26 198.169C1171.06 197.095 1167.1 195.85 1163.39 194.434C1159.73 193.018 1156.38 191.504 1153.36 189.893L1162.73 173.486ZM1284.97 129.834H1264.1V113.574H1284.97V86.6943H1306.65V113.574H1327.53V129.834H1306.65V200H1284.97V129.834ZM1358.22 101.782C1356.07 101.782 1354.11 101.489 1352.36 100.903C1350.65 100.269 1349.18 99.4385 1347.96 98.4131C1346.74 97.3389 1345.79 96.1182 1345.11 94.751C1344.47 93.335 1344.15 91.8457 1344.15 90.2832C1344.15 88.6719 1344.47 87.1826 1345.11 85.8154C1345.79 84.3994 1346.74 83.1787 1347.96 82.1533C1349.18 81.1279 1350.65 80.3223 1352.36 79.7363C1354.11 79.1016 1356.07 78.7842 1358.22 78.7842C1360.41 78.7842 1362.37 79.1016 1364.08 79.7363C1365.83 80.3223 1367.32 81.1279 1368.54 82.1533C1369.76 83.1787 1370.69 84.3994 1371.33 85.8154C1372.01 87.1826 1372.35 88.6719 1372.35 90.2832C1372.35 91.8457 1372.01 93.335 1371.33 94.751C1370.69 96.1182 1369.76 97.3389 1368.54 98.4131C1367.32 99.4385 1365.83 100.269 1364.08 100.903C1362.37 101.489 1360.41 101.782 1358.22 101.782ZM1347.38 113.574H1369.06V200H1347.38V113.574ZM1391.69 157.007C1391.69 150.659 1392.83 144.751 1395.13 139.282C1397.47 133.765 1400.87 129.004 1405.31 125C1409.8 120.947 1415.27 117.773 1421.72 115.479C1428.21 113.184 1435.61 112.036 1443.91 112.036C1447.52 112.036 1451.16 112.256 1454.82 112.695C1458.48 113.135 1462 113.77 1465.37 114.6C1468.79 115.381 1471.99 116.333 1474.96 117.456C1477.94 118.53 1480.53 119.727 1482.73 121.045L1472.69 137.378C1467.96 135.181 1463.46 133.569 1459.22 132.544C1455.02 131.519 1450.75 131.006 1446.4 131.006C1441.42 131.006 1436.95 131.665 1433 132.983C1429.04 134.253 1425.67 136.06 1422.89 138.403C1420.15 140.698 1418.05 143.433 1416.59 146.606C1415.17 149.731 1414.47 153.149 1414.47 156.86C1414.47 160.571 1415.22 164.014 1416.74 167.188C1418.3 170.312 1420.47 173.022 1423.25 175.317C1426.09 177.563 1429.48 179.346 1433.44 180.664C1437.44 181.934 1441.88 182.568 1446.77 182.568C1452.14 182.568 1457.19 181.812 1461.93 180.298C1466.71 178.784 1471.16 176.758 1475.26 174.219L1485.29 190.552C1482.7 192.114 1479.9 193.579 1476.87 194.946C1473.84 196.265 1470.59 197.412 1467.13 198.389C1463.71 199.365 1460.1 200.122 1456.29 200.659C1452.53 201.245 1448.62 201.538 1444.57 201.538C1436.32 201.538 1428.92 200.415 1422.38 198.169C1415.83 195.923 1410.29 192.822 1405.75 188.867C1401.21 184.863 1397.72 180.151 1395.28 174.731C1392.88 169.312 1391.69 163.403 1391.69 157.007ZM1512.1 173.486C1517.96 177.002 1524.4 179.59 1531.43 181.25C1538.46 182.91 1545.67 183.74 1553.04 183.74C1558.02 183.74 1562.17 183.398 1565.49 182.715C1568.81 182.031 1571.47 181.152 1573.47 180.078C1575.48 179.004 1576.89 177.783 1577.72 176.416C1578.55 175.049 1578.97 173.657 1578.97 172.241C1578.97 170.19 1578.06 168.433 1576.26 166.968C1574.5 165.503 1571.57 164.771 1567.47 164.771C1565.56 164.771 1563.51 164.893 1561.32 165.137C1559.12 165.381 1556.8 165.649 1554.36 165.942C1551.97 166.187 1549.45 166.431 1546.81 166.675C1544.23 166.919 1541.59 167.041 1538.9 167.041C1533.04 167.041 1528.04 166.406 1523.89 165.137C1519.79 163.867 1516.44 162.134 1513.86 159.937C1511.27 157.739 1509.39 155.151 1508.22 152.173C1507.04 149.146 1506.46 145.898 1506.46 142.432C1506.46 138.037 1507.48 133.984 1509.53 130.273C1511.58 126.562 1514.51 123.364 1518.32 120.679C1522.13 117.944 1526.72 115.82 1532.09 114.307C1537.51 112.793 1543.54 112.036 1550.18 112.036C1553.65 112.036 1557.26 112.256 1561.02 112.695C1564.83 113.086 1568.57 113.623 1572.23 114.307C1575.89 114.99 1579.41 115.796 1582.78 116.724C1586.15 117.603 1589.12 118.555 1591.71 119.58L1584.9 136.426C1579.38 134.375 1573.87 132.764 1568.35 131.592C1562.88 130.371 1557.24 129.761 1551.43 129.761C1547.38 129.761 1543.93 130.078 1541.1 130.713C1538.32 131.299 1536.05 132.104 1534.29 133.13C1532.53 134.106 1531.24 135.254 1530.41 136.572C1529.63 137.842 1529.24 139.185 1529.24 140.601C1529.24 141.626 1529.43 142.554 1529.82 143.384C1530.26 144.214 1530.95 144.946 1531.87 145.581C1532.85 146.167 1534.09 146.631 1535.61 146.973C1537.17 147.266 1539.08 147.412 1541.32 147.412C1543.37 147.412 1545.54 147.29 1547.84 147.046C1550.13 146.802 1552.53 146.558 1555.02 146.313C1557.51 146.021 1560.07 145.752 1562.71 145.508C1565.39 145.264 1568.13 145.142 1570.91 145.142C1576.09 145.142 1580.6 145.752 1584.46 146.973C1588.37 148.193 1591.59 149.902 1594.13 152.1C1596.67 154.297 1598.57 156.885 1599.84 159.863C1601.11 162.842 1601.75 166.089 1601.75 169.604C1601.75 174.146 1600.7 178.369 1598.6 182.275C1596.5 186.182 1593.37 189.575 1589.22 192.456C1585.07 195.288 1579.9 197.51 1573.69 199.121C1567.54 200.732 1560.41 201.538 1552.31 201.538C1547.33 201.538 1542.52 201.221 1537.88 200.586C1533.24 200 1528.82 199.194 1524.62 198.169C1520.42 197.095 1516.47 195.85 1512.76 194.434C1509.09 193.018 1505.75 191.504 1502.72 189.893L1512.1 173.486Z" fill="#31304D"/>
<path d="M1102.41 221.734H1141.03C1146.66 221.734 1151.53 222.344 1155.66 223.562C1159.78 224.781 1163.2 226.547 1165.92 228.859C1168.64 231.141 1170.66 233.938 1171.97 237.25C1173.31 240.562 1173.98 244.297 1173.98 248.453C1173.98 252.359 1173.33 255.969 1172.02 259.281C1170.7 262.594 1168.69 265.469 1165.97 267.906C1163.28 270.312 1159.88 272.203 1155.75 273.578C1151.62 274.922 1146.75 275.594 1141.12 275.594L1117.27 275.547V295H1102.41V221.734ZM1141.41 262.703C1144.22 262.703 1146.67 262.375 1148.77 261.719C1150.89 261.031 1152.66 260.078 1154.06 258.859C1155.5 257.609 1156.56 256.109 1157.25 254.359C1157.97 252.578 1158.33 250.609 1158.33 248.453C1158.33 244.109 1156.91 240.734 1154.06 238.328C1151.25 235.891 1147.03 234.672 1141.41 234.672H1117.27V262.703H1141.41ZM1185.89 277.562C1185.89 274.906 1186.47 272.484 1187.62 270.297C1188.78 268.109 1190.52 266.234 1192.83 264.672C1195.14 263.078 1198.02 261.859 1201.45 261.016C1204.92 260.141 1208.95 259.703 1213.55 259.703C1216.95 259.703 1220.53 259.953 1224.28 260.453C1228.06 260.953 1231.95 261.719 1235.95 262.75C1235.8 261 1235.27 259.391 1234.36 257.922C1233.45 256.422 1232.19 255.141 1230.56 254.078C1228.97 252.984 1227.03 252.141 1224.75 251.547C1222.5 250.953 1219.94 250.656 1217.06 250.656C1215.5 250.656 1213.78 250.75 1211.91 250.938C1210.03 251.125 1208.09 251.406 1206.09 251.781C1204.09 252.156 1202.11 252.625 1200.14 253.188C1198.2 253.75 1196.39 254.422 1194.7 255.203L1190.48 243.812C1192.58 243.062 1194.81 242.375 1197.19 241.75C1199.59 241.125 1202.05 240.594 1204.55 240.156C1207.05 239.688 1209.55 239.328 1212.05 239.078C1214.55 238.828 1216.97 238.703 1219.31 238.703C1229.66 238.703 1237.34 241.344 1242.38 246.625C1247.41 251.906 1249.92 260 1249.92 270.906V295H1236.05V289.797C1234.61 290.641 1233.03 291.438 1231.31 292.188C1229.62 292.938 1227.78 293.594 1225.78 294.156C1223.78 294.719 1221.62 295.156 1219.31 295.469C1217.03 295.812 1214.61 295.984 1212.05 295.984C1207.73 295.984 1203.94 295.516 1200.66 294.578C1197.41 293.641 1194.69 292.344 1192.5 290.688C1190.31 289.031 1188.66 287.094 1187.53 284.875C1186.44 282.625 1185.89 280.188 1185.89 277.562ZM1200.52 277.094C1200.52 278 1200.75 278.875 1201.22 279.719C1201.69 280.531 1202.44 281.266 1203.47 281.922C1204.5 282.547 1205.81 283.062 1207.41 283.469C1209.03 283.844 1210.98 284.031 1213.27 284.031C1215.7 284.031 1218.06 283.812 1220.34 283.375C1222.62 282.938 1224.75 282.359 1226.72 281.641C1228.69 280.922 1230.47 280.094 1232.06 279.156C1233.66 278.219 1234.98 277.25 1236.05 276.25V273.812C1233.92 273.219 1231.81 272.719 1229.72 272.312C1227.66 271.906 1225.67 271.594 1223.77 271.375C1221.89 271.125 1220.11 270.953 1218.42 270.859C1216.77 270.766 1215.31 270.719 1214.06 270.719C1211.47 270.719 1209.31 270.891 1207.59 271.234C1205.88 271.578 1204.48 272.047 1203.42 272.641C1202.36 273.203 1201.61 273.875 1201.17 274.656C1200.73 275.438 1200.52 276.25 1200.52 277.094ZM1268.3 239.688H1282.17V244.375C1285.86 242.281 1289.38 240.812 1292.72 239.969C1296.09 239.125 1299.39 238.703 1302.61 238.703C1306.83 238.703 1310.73 239.328 1314.33 240.578C1317.92 241.797 1321.03 243.625 1323.66 246.062C1326.28 248.5 1328.33 251.547 1329.8 255.203C1331.3 258.828 1332.05 263.031 1332.05 267.812V295H1318.22V270.062C1318.22 267.031 1317.78 264.328 1316.91 261.953C1316.06 259.547 1314.83 257.531 1313.2 255.906C1311.61 254.25 1309.66 253 1307.34 252.156C1305.06 251.281 1302.5 250.844 1299.66 250.844C1298.16 250.844 1296.61 251 1295.02 251.312C1293.45 251.625 1291.91 252.078 1290.38 252.672C1288.88 253.234 1287.42 253.953 1286.02 254.828C1284.61 255.672 1283.33 256.641 1282.17 257.734V295H1268.3V239.688ZM1346.48 277.562C1346.48 274.906 1347.06 272.484 1348.22 270.297C1349.38 268.109 1351.11 266.234 1353.42 264.672C1355.73 263.078 1358.61 261.859 1362.05 261.016C1365.52 260.141 1369.55 259.703 1374.14 259.703C1377.55 259.703 1381.12 259.953 1384.88 260.453C1388.66 260.953 1392.55 261.719 1396.55 262.75C1396.39 261 1395.86 259.391 1394.95 257.922C1394.05 256.422 1392.78 255.141 1391.16 254.078C1389.56 252.984 1387.62 252.141 1385.34 251.547C1383.09 250.953 1380.53 250.656 1377.66 250.656C1376.09 250.656 1374.38 250.75 1372.5 250.938C1370.62 251.125 1368.69 251.406 1366.69 251.781C1364.69 252.156 1362.7 252.625 1360.73 253.188C1358.8 253.75 1356.98 254.422 1355.3 255.203L1351.08 243.812C1353.17 243.062 1355.41 242.375 1357.78 241.75C1360.19 241.125 1362.64 240.594 1365.14 240.156C1367.64 239.688 1370.14 239.328 1372.64 239.078C1375.14 238.828 1377.56 238.703 1379.91 238.703C1390.25 238.703 1397.94 241.344 1402.97 246.625C1408 251.906 1410.52 260 1410.52 270.906V295H1396.64V289.797C1395.2 290.641 1393.62 291.438 1391.91 292.188C1390.22 292.938 1388.38 293.594 1386.38 294.156C1384.38 294.719 1382.22 295.156 1379.91 295.469C1377.62 295.812 1375.2 295.984 1372.64 295.984C1368.33 295.984 1364.53 295.516 1361.25 294.578C1358 293.641 1355.28 292.344 1353.09 290.688C1350.91 289.031 1349.25 287.094 1348.12 284.875C1347.03 282.625 1346.48 280.188 1346.48 277.562ZM1361.11 277.094C1361.11 278 1361.34 278.875 1361.81 279.719C1362.28 280.531 1363.03 281.266 1364.06 281.922C1365.09 282.547 1366.41 283.062 1368 283.469C1369.62 283.844 1371.58 284.031 1373.86 284.031C1376.3 284.031 1378.66 283.812 1380.94 283.375C1383.22 282.938 1385.34 282.359 1387.31 281.641C1389.28 280.922 1391.06 280.094 1392.66 279.156C1394.25 278.219 1395.58 277.25 1396.64 276.25V273.812C1394.52 273.219 1392.41 272.719 1390.31 272.312C1388.25 271.906 1386.27 271.594 1384.36 271.375C1382.48 271.125 1380.7 270.953 1379.02 270.859C1377.36 270.766 1375.91 270.719 1374.66 270.719C1372.06 270.719 1369.91 270.891 1368.19 271.234C1366.47 271.578 1365.08 272.047 1364.02 272.641C1362.95 273.203 1362.2 273.875 1361.77 274.656C1361.33 275.438 1361.11 276.25 1361.11 277.094ZM1429.27 239.688H1443.14V244.375C1446.61 242.25 1449.98 240.781 1453.27 239.969C1456.58 239.125 1459.81 238.703 1462.97 238.703C1467.38 238.703 1471.42 239.406 1475.11 240.812C1478.8 242.219 1481.95 244.344 1484.58 247.188C1486.61 245.625 1488.61 244.312 1490.58 243.25C1492.55 242.156 1494.52 241.281 1496.48 240.625C1498.45 239.938 1500.45 239.453 1502.48 239.172C1504.52 238.859 1506.61 238.703 1508.77 238.703C1513.3 238.703 1517.41 239.328 1521.09 240.578C1524.78 241.797 1527.92 243.625 1530.52 246.062C1533.14 248.5 1535.16 251.547 1536.56 255.203C1538 258.828 1538.72 263.031 1538.72 267.812V295H1524.89V270.062C1524.89 267.031 1524.45 264.328 1523.58 261.953C1522.73 259.547 1521.53 257.531 1519.97 255.906C1518.44 254.25 1516.59 253 1514.44 252.156C1512.31 251.281 1509.97 250.844 1507.41 250.844C1506 250.844 1504.56 250.984 1503.09 251.266C1501.62 251.516 1500.19 251.922 1498.78 252.484C1497.41 253.047 1496.11 253.766 1494.89 254.641C1493.67 255.484 1492.61 256.484 1491.7 257.641V295H1477.88V270.062C1477.88 267.031 1477.44 264.328 1476.56 261.953C1475.72 259.547 1474.52 257.531 1472.95 255.906C1471.42 254.25 1469.56 253 1467.38 252.156C1465.22 251.281 1462.84 250.844 1460.25 250.844C1458.66 250.844 1457.05 251.016 1455.42 251.359C1453.83 251.672 1452.28 252.125 1450.78 252.719C1449.31 253.312 1447.92 254.031 1446.61 254.875C1445.33 255.719 1444.17 256.672 1443.14 257.734V295H1429.27V239.688ZM1553.58 277.562C1553.58 274.906 1554.16 272.484 1555.31 270.297C1556.47 268.109 1558.2 266.234 1560.52 264.672C1562.83 263.078 1565.7 261.859 1569.14 261.016C1572.61 260.141 1576.64 259.703 1581.23 259.703C1584.64 259.703 1588.22 259.953 1591.97 260.453C1595.75 260.953 1599.64 261.719 1603.64 262.75C1603.48 261 1602.95 259.391 1602.05 257.922C1601.14 256.422 1599.88 255.141 1598.25 254.078C1596.66 252.984 1594.72 252.141 1592.44 251.547C1590.19 250.953 1587.62 250.656 1584.75 250.656C1583.19 250.656 1581.47 250.75 1579.59 250.938C1577.72 251.125 1575.78 251.406 1573.78 251.781C1571.78 252.156 1569.8 252.625 1567.83 253.188C1565.89 253.75 1564.08 254.422 1562.39 255.203L1558.17 243.812C1560.27 243.062 1562.5 242.375 1564.88 241.75C1567.28 241.125 1569.73 240.594 1572.23 240.156C1574.73 239.688 1577.23 239.328 1579.73 239.078C1582.23 238.828 1584.66 238.703 1587 238.703C1597.34 238.703 1605.03 241.344 1610.06 246.625C1615.09 251.906 1617.61 260 1617.61 270.906V295H1603.73V289.797C1602.3 290.641 1600.72 291.438 1599 292.188C1597.31 292.938 1595.47 293.594 1593.47 294.156C1591.47 294.719 1589.31 295.156 1587 295.469C1584.72 295.812 1582.3 295.984 1579.73 295.984C1575.42 295.984 1571.62 295.516 1568.34 294.578C1565.09 293.641 1562.38 292.344 1560.19 290.688C1558 289.031 1556.34 287.094 1555.22 284.875C1554.12 282.625 1553.58 280.188 1553.58 277.562ZM1568.2 277.094C1568.2 278 1568.44 278.875 1568.91 279.719C1569.38 280.531 1570.12 281.266 1571.16 281.922C1572.19 282.547 1573.5 283.062 1575.09 283.469C1576.72 283.844 1578.67 284.031 1580.95 284.031C1583.39 284.031 1585.75 283.812 1588.03 283.375C1590.31 282.938 1592.44 282.359 1594.41 281.641C1596.38 280.922 1598.16 280.094 1599.75 279.156C1601.34 278.219 1602.67 277.25 1603.73 276.25V273.812C1601.61 273.219 1599.5 272.719 1597.41 272.312C1595.34 271.906 1593.36 271.594 1591.45 271.375C1589.58 271.125 1587.8 270.953 1586.11 270.859C1584.45 270.766 1583 270.719 1581.75 270.719C1579.16 270.719 1577 270.891 1575.28 271.234C1573.56 271.578 1572.17 272.047 1571.11 272.641C1570.05 273.203 1569.3 273.875 1568.86 274.656C1568.42 275.438 1568.2 276.25 1568.2 277.094Z" fill="#31304D"/>
</svg>
